<?xml version="1.0" encoding="UTF-8"?>
<svg version="1.1" xmlns="http://www.w3.org/2000/svg" width="2000" height="2000">
<path d="M0 0 C660 0 1320 0 2000 0 C2000 660 2000 1320 2000 2000 C1340 2000 680 2000 0 2000 C0 1340 0 680 0 0 Z " fill="#008236" transform="translate(0,0)"/>
<path d="M0 0 C0.73476563 -0.00773438 1.46953125 -0.01546875 2.2265625 -0.0234375 C32.09523863 0.07991432 61.87552906 18.10783078 86.9375 32.75 C87.60105499 33.13275085 88.26460999 33.51550171 88.94827271 33.90985107 C96.39666038 38.22734437 103.3236327 42.84980736 109.890625 48.43359375 C110.45694138 48.91401123 111.02325775 49.39442871 111.60673523 49.8894043 C129.55721154 65.6744001 134.18548073 88.74084868 135.84765625 111.46484375 C135.9680931 112.9734478 136.08974338 114.48195539 136.21250916 115.9903717 C136.53014775 119.93006666 136.83257362 123.87077221 137.13116455 127.81195068 C137.42856518 131.70798896 137.73884846 135.60299252 138.04882812 139.49804688 C138.17179482 141.04557467 138.29471964 142.5931058 138.41760254 144.14064026 C138.47836472 144.9058304 138.53912689 145.67102055 138.60173035 146.45939827 C138.78515408 148.77731633 138.96694683 151.09535719 139.14831543 153.41343689 C140.8851151 175.56437461 142.71798544 197.72324519 145.125 219.8125 C145.20648285 220.56373138 145.2879657 221.31496277 145.37191772 222.08895874 C147.1740202 238.55712381 149.5522103 254.90679086 152.25 271.25 C152.37868469 272.03564331 152.50736938 272.82128662 152.63995361 273.6307373 C156.37061294 296.39391019 160.66682644 318.86249711 166.25 341.25 C166.64670802 342.87348443 167.04264698 344.49715716 167.4375 346.12109375 C168.34708328 349.83809122 169.29022402 353.5456015 170.25 357.25 C170.56453125 358.466875 170.8790625 359.68375 171.203125 360.9375 C173.50378252 369.70190962 175.97924185 378.40720835 178.59667969 387.08154297 C179.01740376 388.47798215 179.434973 389.87537771 179.84863281 391.27392578 C205.34093033 478.37579877 205.34093033 478.37579877 261.125 546.5 C271.03119774 553.4726027 275.15482431 563.59409957 280.25 574.25 C218.46824102 574.98066469 161.02916605 555.23298681 116.25 512.25 C115.73695313 511.76418457 115.22390625 511.27836914 114.6953125 510.77783203 C106.71043554 503.1957455 99.79205233 495.09994302 93.25 486.25 C92.7653125 485.59902344 92.280625 484.94804688 91.78125 484.27734375 C83.73691945 473.40492824 76.75537108 462.09971413 70.25 450.25 C69.7653125 449.37633789 69.280625 448.50267578 68.78125 447.60253906 C60.33296378 432.2845201 53.56620442 416.54302196 47.25 400.25 C41.34668314 402.46748958 37.06961866 405.27395456 34.0625 410.875 C30.53142335 418.87083727 28.88751938 427.47697189 27.5 436.0625 C25.83216579 445.97119969 24.0742071 455.86113641 22.26037598 465.74398804 C21.96918702 467.33265038 21.67916498 468.92152721 21.39050293 470.51065063 C19.10427997 483.09311649 16.54078257 495.60856398 13.90670776 508.12240601 C4.85572862 551.22801487 -3.77718089 594.4106305 -10.5625 637.9375 C-10.69789185 638.80376007 -10.83328369 639.67002014 -10.97277832 640.56253052 C-15.01814334 666.60292859 -18.27775301 692.70174936 -20.75 718.9375 C-20.87775079 720.27971791 -21.00565236 721.62192147 -21.13369751 722.96411133 C-24.75125443 760.93552414 -27.73475946 798.91556055 -29.71166992 837.00976562 C-29.82071256 839.10677542 -29.92984329 841.20378064 -30.0390625 843.30078125 C-30.09369156 844.35352234 -30.14832062 845.40626343 -30.2046051 846.49090576 C-30.55801251 853.13336643 -30.98628378 859.76717766 -31.45687866 866.40229797 C-32.92168347 887.16777568 -33.77133372 907.9551729 -34.62216949 928.75336075 C-34.75206712 931.92547925 -34.88296777 935.09755507 -35.01409912 938.2696228 C-35.56966217 951.72436267 -36.1135247 965.1795436 -36.64640808 978.6352005 C-36.74138996 981.03267091 -36.8367754 983.4301249 -36.93225098 985.82757568 C-37.63620373 1003.55275842 -38.21653708 1021.27956425 -38.68994141 1039.01237488 C-38.75339035 1041.37631544 -38.81803642 1043.74022143 -38.8828125 1046.10412598 C-41.40444736 1138.55907424 -41.58101186 1231.08776425 -39.11645508 1369.73730469 C-38.83354572 1381.36666578 -38.70827312 1392.99197237 -38.65323067 1404.62421799 C-38.61423712 1412.54122394 -38.56075736 1420.45813338 -38.5 1428.375 C-38.49325886 1429.25953857 -38.48651772 1430.14407715 -38.4795723 1431.05541992 C-38.26200349 1458.07542253 -37.13292242 1484.81027391 -34.47753906 1511.70556641 C-33.42158261 1522.43651503 -32.52249175 1533.07332265 -32.47265625 1543.86328125 C-32.46511826 1544.78207565 -32.45758026 1545.70087006 -32.44981384 1546.64750671 C-32.50147979 1553.74530621 -33.02855785 1561.36309423 -36.9375 1567.5 C-37.30230469 1568.10328125 -37.66710937 1568.7065625 -38.04296875 1569.328125 C-42.72872691 1574.60362389 -48.30064985 1577.21836481 -55 1579.0625 C-55.66773438 1579.27841797 -56.33546875 1579.49433594 -57.0234375 1579.71679688 C-72.03882341 1583.95501064 -89.22061658 1580.95876355 -104.4375 1579.25 C-106.22971833 1579.0563696 -108.02203612 1578.86365759 -109.81445312 1578.671875 C-114.12751515 1578.20842948 -118.43906448 1577.73280937 -122.75 1577.25 C-129.24115765 1532.36903939 -134.46125102 1487.31953221 -138.92578125 1442.1940918 C-139.1090967 1440.34811687 -139.2926941 1438.50216993 -139.4765625 1436.65625 C-139.570513 1435.71257568 -139.6644635 1434.76890137 -139.76126099 1433.79663086 C-140.35153237 1427.95254419 -140.98489002 1422.11436591 -141.65185547 1416.27856445 C-144.23446683 1393.64922247 -146.40451417 1371.00048651 -148.37513351 1348.30992889 C-148.62892345 1345.39239659 -148.88445805 1342.47502148 -149.14041138 1339.55767822 C-151.97411884 1307.22672941 -154.5484116 1274.87932937 -156.93505859 1242.51245117 C-157.02342751 1241.3166627 -157.02342751 1241.3166627 -157.11358166 1240.09671688 C-157.3870287 1236.39491573 -157.65878736 1232.69301328 -157.92616272 1228.99076843 C-158.35704136 1223.10825953 -158.83738994 1217.25198963 -159.52680969 1211.39450073 C-159.97540562 1207.08421368 -160.16966327 1202.75617864 -160.3984375 1198.4296875 C-160.45649567 1197.37750031 -160.51455383 1196.32531311 -160.57437134 1195.24124146 C-160.76028124 1191.8692856 -160.9430099 1188.49716952 -161.125 1185.125 C-161.3593829 1180.78891636 -161.59621538 1176.45297937 -161.8359375 1172.1171875 C-161.9006575 1170.94286667 -161.9653775 1169.76854584 -162.03205872 1168.55863953 C-162.46258724 1160.90826557 -162.93985442 1153.26206861 -163.44799805 1145.61645508 C-165.29108561 1117.817645 -166.71831842 1090.02555439 -167.8125 1062.1875 C-167.89732977 1060.04598963 -167.98216879 1057.90447963 -168.0670166 1055.76296997 C-168.61515757 1041.87492097 -169.13837174 1027.98603378 -169.64563751 1014.09643555 C-169.74377743 1011.41971762 -169.84326789 1008.7430541 -169.94329834 1006.06640625 C-171.5876271 961.91845689 -171.94796526 917.77455087 -171.99279237 873.59965962 C-171.99707602 869.38740168 -172.00356107 865.17515654 -172.01214814 860.96290523 C-172.13128067 801.28577462 -169.86006549 741.77938984 -165.75 682.25 C-165.67813477 681.20666504 -165.60626953 680.16333008 -165.53222656 679.08837891 C-165.07484183 672.53217974 -164.58211526 665.97911373 -164.07275391 659.42675781 C-163.83853419 656.41082544 -163.61016411 653.3944974 -163.38427734 650.37792969 C-160.00653239 605.42864295 -155.44756194 560.55827267 -150 515.8125 C-149.90526398 515.03156982 -149.81052795 514.25063965 -149.71292114 513.44604492 C-148.56350075 504.0380371 -147.23360368 494.66607199 -145.80644226 485.29629517 C-144.86646341 479.10457744 -144.04338531 472.90749487 -143.3125 466.6875 C-141.26806757 449.88861971 -138.89359039 433.12247734 -135.82641602 416.47802734 C-134.6034857 409.71476359 -133.71416239 402.91000987 -132.81103516 396.09790039 C-131.92760786 389.45450351 -130.9331097 382.84757645 -129.75 376.25 C-133.69462483 374.56749676 -136.56973248 374.18290595 -140.75 375.25 C-145.71295791 379.28187428 -149.35962146 384.83451305 -153.08935547 389.97265625 C-155.41070644 393.15606729 -157.86081633 396.22930156 -160.3125 399.3125 C-161.19854664 400.44742512 -162.08395693 401.58284732 -162.96875 402.71875 C-166.03002064 406.62694278 -169.17095224 410.46876695 -172.3125 414.3125 C-176.63912684 419.61072024 -180.87936095 424.96001886 -185.02294922 430.40234375 C-188.09481329 434.42762978 -191.25456594 438.37471992 -194.4375 442.3125 C-199.19733752 448.21420206 -203.77989166 454.23487935 -208.3125 460.3125 C-214.33914744 468.39135429 -220.45670218 476.37742022 -226.75 484.25 C-227.27867676 484.91547852 -227.80735352 485.58095703 -228.35205078 486.26660156 C-242.53813002 504.10311662 -259.66142127 523.59369571 -283.7109375 526.91015625 C-305.4126915 529.03928501 -323.40949932 523.8516094 -341.01171875 510.5 C-347.57771155 505.10483331 -353.77731742 499.29328166 -359.75 493.25 C-358.07791144 488.1770747 -355.11449198 484.09341175 -352.125 479.7265625 C-351.55523437 478.88584198 -350.98546875 478.04512146 -350.3984375 477.17892456 C-349.16576645 475.36098797 -347.93098588 473.54448035 -346.69433594 471.72924805 C-343.37010792 466.84934476 -340.06129835 461.95899406 -336.75 457.0703125 C-336.07396729 456.07320251 -335.39793457 455.07609253 -334.70141602 454.04876709 C-328.3327088 444.64997289 -322.03444447 435.20525013 -315.75 425.75 C-306.03065324 411.13623054 -296.2377562 396.57347668 -286.41278076 382.0305481 C-277.68739523 369.11328807 -269.00947632 356.16568967 -260.375 343.1875 C-250.11767044 327.77234966 -239.77290373 312.41881101 -229.38398743 297.09213257 C-223.43615066 288.3150833 -217.50529622 279.52657363 -211.57608032 270.73693848 C-210.34535222 268.91263291 -209.11438657 267.08848758 -207.88314819 265.26452637 C-201.49044592 255.79426657 -195.11652103 246.31217804 -188.78515625 236.80078125 C-181.05127011 225.18270472 -173.2408861 213.6167682 -165.42724609 202.05224609 C-158.20144929 191.35589773 -151.00244754 180.64279554 -143.84965515 169.8974762 C-138.12504409 161.30186464 -132.34965404 152.74108136 -126.5625 144.1875 C-125.47718572 142.58237558 -124.3918998 140.97723199 -123.30664062 139.37207031 C-110.29129837 120.12523209 -97.24705335 100.89793124 -84.16870117 81.69384766 C-80.41714126 76.18304709 -76.67870809 70.66381216 -72.95703125 65.1328125 C-28.90676498 -0.29800789 -28.90676498 -0.29800789 0 0 Z " fill="#F3F3F3" transform="translate(852.75,190.75)"/>
<path d="M0 0 C1.00812744 0.00531738 2.01625488 0.01063477 3.05493164 0.01611328 C11.1324558 0.11812342 18.83521186 0.97119808 26.8125 2.25 C30.41288907 2.71438008 34.0188575 3.13304493 37.62475586 3.55224609 C40.50264718 3.90097064 43.05159378 4.32969793 45.8125 5.25 C47.73345264 14.79064421 48.90557469 24.40742819 50.0625 34.0625 C50.16754852 34.93004913 50.27259705 35.79759827 50.38082886 36.69143677 C52.57574 54.82575378 54.59537578 72.97966586 56.58105469 91.13793945 C56.81561661 93.27817275 57.0503182 95.41839074 57.28515625 97.55859375 C57.4039061 98.64288666 57.52265594 99.72717957 57.64500427 100.84432983 C58.31324394 106.89673554 59.01112339 112.94449477 59.7434082 118.98950195 C62.39659813 140.90638171 64.57544726 162.85205198 66.62078857 184.83343506 C67.2960558 192.08270835 67.9778778 199.33136971 68.66008949 206.57999229 C68.82639234 208.34784436 68.99245873 210.11571868 69.15828514 211.88361549 C70.18806943 222.85649895 71.27015919 233.82121666 72.4296875 244.78125 C73.78754311 257.65203787 74.8772344 270.53436645 75.875 283.4375 C76.03678952 285.49416581 76.19889957 287.55080643 76.36132812 289.60742188 C76.76878364 294.77854248 77.17006799 299.95012176 77.56964111 305.12185669 C77.8130558 308.25715902 78.06023719 311.39214649 78.30810547 314.52709961 C79.61571307 331.15523679 80.73637916 347.79294573 81.8125 364.4375 C81.98911054 367.15366605 82.16619711 369.86980102 82.34326172 372.5859375 C83.04884586 383.4176518 83.74930936 394.2496971 84.4453125 405.08203125 C84.48895935 405.76090393 84.5326062 406.43977661 84.57757568 407.13922119 C84.7742134 410.19967648 84.96987082 413.26018919 85.1640625 416.32080078 C85.51735747 421.85286374 85.89116042 427.38224857 86.3046875 432.91015625 C87.56409236 449.9084819 88.35996141 466.90401879 89.0625 483.93286133 C89.50661771 494.62773836 90.02056389 505.31095142 90.68777466 515.99414062 C91.70028517 532.27754919 92.31418707 548.5702988 92.875 564.875 C92.91520264 566.02931519 92.95540527 567.18363037 92.99682617 568.3729248 C93.27049535 576.30227766 93.51800505 584.2322118 93.75058365 592.16287231 C93.81456629 594.3196521 93.88083118 596.47635391 93.94735718 598.63305664 C94.89192739 629.58719445 95.01295496 660.53316018 95 691.5 C94.99988041 692.77084694 94.99976082 694.04169388 94.9996376 695.35105133 C94.99468902 737.02146798 94.59785708 778.61568047 92.8125 820.25 C92.75386242 821.63592258 92.69529036 823.02184793 92.63677979 824.40777588 C91.50276539 851.17181775 90.25240658 877.91404303 88.10058594 904.61868286 C87.78624581 908.58093352 87.48495055 912.54402114 87.1875 916.50756836 C84.08431687 957.84142429 80.60941608 999.0717614 75.8125 1040.25 C75.55703025 1042.45978677 75.30165971 1044.66958502 75.04638672 1046.87939453 C71.93760421 1073.71008364 68.59433633 1100.50562537 64.8125 1127.25 C64.70808594 1127.99078796 64.60367187 1128.73157593 64.49609375 1129.49481201 C62.32269473 1144.89952299 60.10599325 1160.27778086 57.19995117 1175.56469727 C55.35258663 1185.40365221 54.0720953 1195.32125453 52.8125 1205.25 C59.53352926 1206.8767758 59.53352926 1206.8767758 65.85546875 1204.96435547 C67.70180209 1202.97067459 69.2592308 1200.91712471 70.8125 1198.6875 C71.4007959 1197.90971191 71.9890918 1197.13192383 72.59521484 1196.33056641 C73.79414572 1194.74205604 74.97840992 1193.14236553 76.14746094 1191.53173828 C78.06629246 1188.90220757 80.06925428 1186.35213916 82.09765625 1183.80688477 C83.44386757 1182.11700689 84.77419385 1180.4156428 86.1015625 1178.7109375 C88.97430369 1175.03240185 91.89126877 1171.39007313 94.8125 1167.75 C99.13457194 1162.36164111 103.42022606 1156.94660352 107.67675781 1151.50634766 C109.9785606 1148.56880105 112.29399434 1145.64409085 114.640625 1142.7421875 C120.36439227 1135.66098983 125.9302168 1128.48611859 131.375 1121.1875 C136.94910778 1113.7155245 142.5779652 1106.301992 148.3984375 1099.02001953 C149.40093112 1097.76517168 150.40065373 1096.50810781 151.3984375 1095.24951172 C164.12206401 1079.21430753 177.20476408 1064.65937486 196.8125 1057.25 C197.53824219 1056.93289063 198.26398437 1056.61578125 199.01171875 1056.2890625 C213.9599223 1050.60196237 231.55782445 1053.97884418 245.77636719 1060.09472656 C260.17982108 1066.66025855 272.03518424 1076.80220607 282.8125 1088.25 C281.5603839 1091.64665831 280.14337011 1094.45440054 278.03149414 1097.39038086 C277.47634628 1098.17030899 276.92119843 1098.95023712 276.34922791 1099.75379944 C275.45126244 1101.00295387 275.45126244 1101.00295387 274.53515625 1102.27734375 C269.61296242 1109.2166695 264.78802704 1116.20269762 260.12109375 1123.31640625 C259.56755722 1124.16011276 259.01402069 1125.00381927 258.44371033 1125.87309265 C257.30087553 1127.61785725 256.15889377 1129.36318085 255.01773071 1131.10903931 C241.35780407 1151.99970692 227.44288041 1172.71279909 213.45065308 1193.3817749 C210.21903406 1198.1587595 207.00557769 1202.94717885 203.8125 1207.75 C200.07205448 1213.37613646 196.2991063 1218.97957937 192.51171875 1224.57421875 C178.36962765 1245.47175557 164.34318269 1266.43734254 150.53198242 1287.55541992 C145.7586263 1294.84211084 140.99037049 1302.11060543 135.87109375 1309.16015625 C128.42893582 1319.41024347 121.63544677 1330.10984906 114.70947266 1340.71142578 C107.60298055 1351.58073122 100.40188766 1362.35675101 92.91545105 1372.96850586 C87.45811018 1380.71547026 82.19170289 1388.58153472 76.95999146 1396.48202515 C74.16684057 1400.69904462 71.36451995 1404.90996421 68.5625 1409.12109375 C67.99628433 1409.97228287 67.43006866 1410.82347198 66.84669495 1411.70045471 C61.22870979 1420.13939332 55.5609027 1428.54421471 49.875 1436.9375 C49.16496323 1437.98568909 49.16496323 1437.98568909 48.44058228 1439.05505371 C45.67120446 1443.14228238 42.89964674 1447.22802805 40.12701416 1451.31304932 C38.4318667 1453.81086724 36.73760053 1456.30928224 35.04335022 1458.80770874 C31.12455787 1464.58645233 27.20366657 1470.36376805 23.2815094 1476.14022827 C20.11965389 1480.79708812 16.9593911 1485.45502707 13.79954529 1490.11325073 C10.63295286 1494.78129548 7.46496388 1499.44839105 4.29664612 1504.11526489 C1.97402739 1507.53699167 -0.34616906 1510.96034645 -2.66470337 1514.38484192 C-44.50316099 1576.1747845 -44.50316099 1576.1747845 -68.1875 1581.25 C-108.60608113 1585.01783383 -155.06069986 1558.14393279 -185.97265625 1534.08203125 C-203.82402329 1518.25157369 -210.31680007 1498.20485101 -212.01953125 1475.01953125 C-212.17761425 1472.93757226 -212.33582283 1470.85562279 -212.49414062 1468.77368164 C-212.57639893 1467.68024445 -212.65865723 1466.58680725 -212.7434082 1465.4602356 C-215.46435898 1429.42996726 -218.69532663 1393.46128715 -222.91534424 1357.57421875 C-223.19767603 1355.16309642 -223.47583615 1352.75151726 -223.75341797 1350.33984375 C-226.24401455 1328.78433271 -229.24831809 1307.43362012 -233.42578125 1286.13769531 C-234.18181742 1282.27900303 -234.9197912 1278.4171579 -235.65625 1274.5546875 C-240.36191197 1250.17023255 -246.01413194 1226.02998171 -253.1875 1202.25 C-253.66243896 1200.65913574 -253.66243896 1200.65913574 -254.14697266 1199.03613281 C-262.60293541 1170.80678206 -272.22414303 1143.20271446 -284.1875 1116.25 C-284.63593262 1115.23357422 -285.08436523 1114.21714844 -285.54638672 1113.16992188 C-298.79964437 1083.2558351 -312.67324917 1052.56731545 -340.375 1033.3125 C-348.80101139 1027.06792634 -352.75813235 1016.46256053 -357.1875 1007.25 C-298.10693943 1004.94149763 -240.05767741 1025.98936436 -196.75 1066 C-178.47887318 1083.17394106 -163.97675892 1102.69844586 -151.1875 1124.25 C-150.71135254 1125.05115234 -150.23520508 1125.85230469 -149.74462891 1126.67773438 C-142.58756993 1138.88612311 -136.63893562 1151.56569486 -130.9375 1164.5 C-130.42961441 1165.65110764 -130.42961441 1165.65110764 -129.91146851 1166.82546997 C-128.95066082 1169.01132432 -127.99688639 1171.20005942 -127.046875 1173.390625 C-126.75688126 1174.05418503 -126.46688751 1174.71774506 -126.16810608 1175.40141296 C-124.1875 1180.0146065 -124.1875 1180.0146065 -124.1875 1182.25 C-115.95766014 1177.75102088 -111.12757421 1172.53973831 -108.33203125 1163.4765625 C-107.29327397 1158.91980404 -106.54024498 1154.31355627 -105.75294495 1149.70785522 C-103.04999227 1133.91359736 -100.01882814 1118.2011152 -96.82421875 1102.5 C-96.62625891 1101.52666592 -96.42829906 1100.55333183 -96.22434044 1099.55050278 C-94.36791156 1090.42969593 -92.50207277 1081.31081771 -90.6340332 1072.19238281 C-85.26529167 1045.97207397 -80.15785908 1019.7249024 -75.46378517 993.37499714 C-74.25986751 986.62396519 -73.01693481 979.88064218 -71.76065063 973.13917542 C-67.01769805 947.56689255 -62.8419595 921.90613924 -59.7578125 896.078125 C-59.65200426 895.19421396 -59.54619602 894.31030293 -59.43718147 893.3996067 C-56.84348532 871.5355557 -55.06882669 849.61184183 -53.37449646 827.6627388 C-53.1197754 824.36996162 -52.86243952 821.07739794 -52.60437012 817.78488159 C-51.51222861 803.8431222 -50.44206388 789.89979957 -49.39147186 775.95484924 C-49.20378074 773.46589718 -49.01518839 770.97701553 -48.82623291 768.48815918 C-45.85337044 729.26429835 -44.10236121 690.00273334 -42.49316406 650.70336914 C-42.45276725 649.71864215 -42.41237043 648.73391516 -42.37074947 647.71934795 C-42.1807192 643.07908794 -41.99264397 638.43876528 -41.80860901 633.79826355 C-41.46220084 625.16772403 -41.04774025 616.54727751 -40.51980209 607.92588043 C-40.2248808 603.05887154 -40.01802635 598.20298098 -39.94140625 593.328125 C-39.90958898 591.74169754 -39.87768341 590.15527184 -39.84570312 588.56884766 C-39.82262085 587.3375412 -39.82262085 587.3375412 -39.79907227 586.08135986 C-39.39107036 564.61914045 -38.69061118 543.16829299 -37.93579102 521.71582031 C-37.66418609 513.89453091 -37.41659573 506.07263672 -37.1875 498.25 C-37.16510757 497.48859711 -37.14271515 496.72719421 -37.11964417 495.94271851 C-36.10160421 460.90123122 -35.94494871 425.85829243 -35.93806124 390.80461931 C-35.93749629 388.48477557 -35.9364274 386.16493248 -35.9352684 383.84508896 C-35.91026184 326.45488545 -36.49655257 269.07593069 -37.35688984 211.69256938 C-37.46821592 204.25746351 -37.57426018 196.82229533 -37.67834473 189.38708496 C-37.82084993 179.25215343 -37.97858794 169.11753245 -38.14607048 158.98298454 C-38.20721574 155.26266792 -38.26345766 151.54233541 -38.31479073 147.8218708 C-38.72169757 118.74762182 -40.42711876 89.87254859 -43.12386036 60.9208498 C-43.93658065 52.07537712 -44.43504131 43.25825735 -44.5625 34.375 C-44.58852295 33.40554443 -44.6145459 32.43608887 -44.64135742 31.43725586 C-44.66114511 23.59928264 -43.00281169 16.92524153 -38.1796875 10.62890625 C-32.79521404 6.00938566 -28.12659755 3.63972324 -21.1875 2.25 C-20.12317749 2.00056641 -20.12317749 2.00056641 -19.03735352 1.74609375 C-12.63418867 0.31654997 -6.54891634 -0.06300755 0 0 Z " fill="#F3F3F3" transform="translate(1224.1875,227.75)"/>
</svg>
